<?xml version="1.0" standalone="no"?>
<!DOCTYPE svg PUBLIC "-//W3C//DTD SVG 20010904//EN"
 "http://www.w3.org/TR/2001/REC-SVG-20010904/DTD/svg10.dtd">
<svg version="1.0" xmlns="http://www.w3.org/2000/svg"
 width="700.000000pt" height="700.000000pt" viewBox="0 0 700.000000 700.000000"
 preserveAspectRatio="xMidYMid meet">
<metadata>
Created by potrace 1.11, written by Peter Selinger 2001-2013
</metadata>
<g transform="translate(0.000000,700.000000) scale(0.100000,-0.100000)"
fill="#000000" stroke="none">
<path d="M3115 6558 c-32 -4 -66 -15 -75 -23 -24 -24 -21 -237 5 -390 17 -100
23 -188 23 -327 -1 -156 -4 -187 -33 -383 -8 -55 -17 -116 -20 -135 -3 -19
-10 -53 -15 -75 -5 -22 -15 -67 -20 -100 -17 -89 -18 -98 -50 -250 -15 -77
-29 -135 -30 -130 -44 277 -169 703 -310 1058 -94 237 -125 258 -244 167 -101
-78 -243 -140 -318 -140 -10 0 -18 -3 -18 -6 0 -3 25 -48 56 -100 127 -216
291 -571 402 -869 184 -494 325 -1086 324 -1365 0 -414 -87 -837 -275 -1335
-33 -88 -73 -189 -89 -225 -102 -225 -85 -204 -173 -215 -30 -4 -70 -20 -100
-39 -27 -17 -63 -38 -79 -46 -16 -8 -45 -34 -65 -58 -73 -87 -86 -215 -32
-323 l29 -58 -22 -20 c-28 -26 -136 -81 -160 -81 -12 0 -16 -5 -12 -16 3 -9 6
-19 6 -24 0 -14 83 18 144 55 64 39 62 24 -7 -44 -42 -41 -52 -71 -23 -71 7 0
32 20 56 45 l44 45 22 -42 c49 -96 146 -180 254 -219 l57 -21 -34 -63 c-39
-74 -75 -173 -67 -186 3 -5 18 -9 35 -9 22 0 29 5 29 19 0 28 74 201 86 201 3
0 3 -3 1 -7 -8 -13 -18 -106 -19 -179 -1 -90 9 -134 30 -134 25 0 46 16 37 29
-8 13 -8 157 -1 210 3 19 10 48 16 65 10 31 11 32 83 34 39 1 81 4 92 6 11 2
40 7 65 11 73 11 184 69 225 118 88 102 107 192 110 520 l2 259 34 29 c19 17
113 96 209 177 180 151 393 353 444 422 41 55 170 181 236 231 75 57 164 96
370 163 319 104 473 168 546 229 49 41 69 50 175 81 87 26 119 48 114 78 -9
52 -125 177 -191 204 -60 25 -153 5 -264 -59 -84 -48 -266 -137 -281 -137 -5
0 -17 -4 -27 -10 -9 -5 -42 -19 -72 -30 l-55 -20 161 157 c221 217 365 317
514 359 85 23 124 54 155 121 l25 56 -25 43 c-30 52 -114 138 -154 158 -36 19
-60 13 -151 -42 -240 -145 -512 -354 -689 -532 -33 -33 -62 -60 -65 -60 -2 0
13 42 34 93 40 96 93 235 96 252 1 6 9 31 17 57 9 26 28 87 41 136 54 191 51
196 -128 206 -179 9 -185 4 -216 -172 -26 -146 -29 -162 -54 -262 -59 -236
-140 -481 -228 -685 -35 -82 -159 -334 -189 -385 -47 -79 -180 -227 -320 -358
l-36 -33 5 33 c9 75 79 425 87 438 2 4 7 21 10 38 3 18 12 62 21 99 9 38 17
75 19 83 2 8 10 45 19 81 18 78 18 81 51 264 25 144 30 190 40 333 11 181 17
247 20 252 1 3 6 36 10 75 4 38 9 73 11 77 2 4 7 26 10 50 9 67 61 216 101
288 35 64 137 219 314 475 49 72 95 140 102 152 6 12 31 53 53 90 135 223 176
336 176 488 0 177 -101 327 -239 355 -87 19 -156 -5 -198 -68 -13 -20 -58
-122 -99 -226 -42 -104 -78 -192 -82 -195 -5 -5 -2 41 11 144 28 225 25 892
-5 969 -27 72 -237 127 -405 104z"/>
</g>
</svg>
